<svg xmlns="http://www.w3.org/2000/svg" width="794" height="1123" viewBox="0 0 794 1123" version="1.1"><path d="M 426.459 384.750 C 427.923 394.887, 434.344 404.773, 442.612 409.619 L 446.950 412.161 447.225 427.830 L 447.500 443.500 456.750 443.609 L 466 443.718 466 428.060 L 466 412.402 469.386 411.177 C 478.040 408.048, 487.051 395.633, 488.566 384.750 L 489.227 380 457.500 380 L 425.773 380 426.459 384.750 M 437.194 457.730 L 437.500 462.500 458 462.500 L 478.500 462.500 478.500 458 L 478.500 453.500 457.694 453.230 L 436.889 452.959 437.194 457.730" stroke="none" fill="#cb9804" fill-rule="evenodd"/><path d="M 279.644 381.750 C 280.020 383.262, 285.357 403.625, 291.506 427 L 302.686 469.500 315.036 469.500 L 327.387 469.500 335.443 438.760 C 339.875 421.852, 343.725 408.023, 344 408.028 C 344.275 408.032, 345.750 413.090, 347.279 419.268 C 348.807 425.446, 352.358 439.387, 355.170 450.250 L 360.282 470 372.141 470 C 378.664 470, 384 469.774, 384 469.497 C 384 468.902, 406.863 382.076, 407.501 380.250 C 407.832 379.300, 405.342 379, 397.133 379 L 386.329 379 379.415 412.592 C 375.612 431.068, 372.369 445.356, 372.208 444.342 C 372.048 443.329, 368.473 428.212, 364.264 410.750 L 356.612 379 345.334 379 L 334.056 379 332.559 384.250 C 327.440 402.196, 317 441.306, 317 442.534 C 317 443.340, 316.550 444, 316 444 C 315.450 444, 315 443.122, 315 442.048 C 315 440.525, 305.006 391.949, 302.491 381.250 C 301.980 379.078, 301.564 379, 290.462 379 L 278.962 379 279.644 381.750 M 439.539 444.199 C 431.254 445.286, 423.991 447.532, 419.937 450.261 L 416.500 452.574 416.215 462.787 L 415.930 473 456.965 473 L 498 473 498 464.223 C 498 457.874, 497.567 454.826, 496.434 453.209 C 494.294 450.155, 488.358 447.286, 480.315 445.421 C 472.776 443.672, 448.985 442.959, 439.539 444.199 M 437.194 457.730 L 437.500 462.500 458 462.500 L 478.500 462.500 478.500 458 L 478.500 453.500 457.694 453.230 L 436.889 452.959 437.194 457.730" stroke="none" fill="#0c0705" fill-rule="evenodd"/></svg>